<svg  xmlns="http://www.w3.org/2000/svg" xmlns:xlink="http://www.w3.org/1999/xlink" width="1026" height="300" viewBox="0 0 1050 324"><path transform="translate(0 100)" d="M78.6,-33.3L56.1,-33.3L56.1,-60L78.6,-60L78.6,-33.3ZM59.8,-83.3L43.6,-84.9L43.6,-62.9L22.3,-62.9L9,-68.1L9,-20.5L10.8,-20.5C15.9,-20.5 21.3,-23.3 21.3,-24.6L21.3,-30.4L43.6,-30.4L43.6,8.9L46,8.9C50.7,8.9 56.1,5.9 56.1,4.5L56.1,-30.4L78.6,-30.4L78.6,-22.1L80.7,-22.1C84.8,-22.1 91,-24.3 91.1,-25L91.1,-58C93.1,-58.4 94.5,-59.3 95.1,-60.1L83.3,-69.1L77.7,-62.9L56.1,-62.9L56.1,-80.4C58.8,-80.8 59.6,-81.9 59.8,-83.3ZM21.3,-33.3L21.3,-60L43.6,-60L43.6,-33.3L21.3,-33.3Z"></path><path transform="translate(100 100)" d="M39.1,-84.7L38.4,-84.1C43,-79.5 47.8,-72.2 49.1,-65.7C60.9,-57.7 70.4,-81.1 39.1,-84.7ZM65.9,-59.3C63.7,-45.8 58.8,-33.6 50.5,-23.1C39.6,-31.9 31.3,-43.6 26.9,-59.3L65.9,-59.3ZM83.6,-71.6L76.5,-62.1L4.1,-62.1L4.9,-59.3L25,-59.3C28.6,-40.9 35.2,-26.9 44.4,-16.2C34.5,-6.4 21,1.8 3.2,7.8L3.7,8.9C23.5,5 38.7,-1.4 50.3,-10.1C59.7,-1.5 71.3,4.6 84.7,9C86.9,3 91.2,-0.7 97.2,-1.5L97.5,-2.7C83.3,-5.7 70,-10.3 58.7,-17.3C70,-28.6 76.8,-42.8 80.3,-59.3L93.3,-59.3C94.8,-59.3 95.8,-59.8 96.1,-60.9C91.5,-65.2 83.6,-71.6 83.6,-71.6Z"></path><path transform="translate(200 100)" d="M79.3,-68L63.7,-71C63.3,-65.5 62.5,-59.3 61.4,-53C58.6,-56.4 55.4,-59.9 51.6,-63.5L50.3,-62.7C54.1,-57 57.1,-50.2 59.5,-43.4C56.3,-29.4 51.2,-15 43.6,-3.9L44.7,-3.1C53,-10.4 59.1,-19.6 63.8,-29.2C65.2,-23.8 66.2,-18.6 67.1,-14.4C73.8,-6.7 81.2,-20.6 69,-42C71.9,-50.3 73.9,-58.5 75.4,-65.7C78.1,-65.9 78.9,-66.7 79.3,-68ZM53.6,-67.8L37.9,-70.9C37.5,-65 36.8,-58.3 35.7,-51.4C32.2,-55.3 27.8,-59.4 22.4,-63.4L21.3,-62.6C26.5,-56.3 30.5,-48.5 33.7,-40.8C31.1,-28.5 27,-16.1 21,-6.3L22.1,-5.5C29,-12 34.3,-20.1 38.3,-28.6L41.2,-19.1C48,-12.7 53.8,-24.3 43.4,-41.3C46.3,-49.8 48.3,-58.2 49.7,-65.5C52.5,-65.7 53.3,-66.5 53.6,-67.8ZM20.3,4.6L20.3,-75L79.4,-75L79.4,-5.3C79.4,-3.8 78.9,-2.9 76.8,-2.9C73.9,-2.9 60.6,-3.8 60.6,-3.8L60.6,-2.4C66.8,-1.5 69.4,-0.2 71.5,1.5C73.5,3.1 74.2,5.6 74.7,9.1C88.8,7.9 90.8,3.4 90.8,-4.3L90.8,-73.2C92.9,-73.6 94.3,-74.4 95,-75.2L83.8,-84L78.4,-77.9L21.2,-77.9L9.1,-82.9L9.1,8.8L11,8.8C15.9,8.8 20.3,6 20.3,4.6Z"></path><path transform="translate(300 100)" d="M41.1,-84.8L40.4,-84.2C44.2,-81 47,-75.2 47.1,-70C58.9,-61.4 70.4,-84.5 41.1,-84.8ZM85,-36.6L78.6,-28.3L55.9,-28.3L55.9,-36.8C58.1,-37.1 59.1,-37.9 59.4,-39.4L58.8,-39.4C65.3,-42.1 71.7,-45.6 76.8,-48.9C78.9,-49.1 80,-49.3 80.8,-50.2L78.5,-52.2C83.4,-54.8 89.5,-59.3 93.1,-62.8C95.2,-62.9 96.3,-63.1 97,-64L86.1,-74.3L79.9,-68L18.8,-68C18.4,-69.8 17.8,-71.8 17,-73.9L15.7,-73.9C16,-68.9 11.7,-64.2 8.3,-62.4C4.8,-60.7 2.4,-57.6 3.6,-53.5C5,-49.1 10.7,-47.9 14.1,-50.2C17.7,-52.6 20.2,-57.8 19.3,-65.2L80.5,-65.2C79.8,-61.3 78.7,-56.4 77.6,-53L69.9,-59.7L63.5,-53.3L21.6,-53.3L22.5,-50.5L62.8,-50.5C60.5,-47.2 57.1,-43.1 53.8,-39.9L43.8,-40.8L43.8,-28.3L4.2,-28.3L5.1,-25.5L43.8,-25.5L43.8,-5.5C43.8,-4.2 43.2,-3.6 41.6,-3.6C39.1,-3.6 25.5,-4.5 25.5,-4.5L25.5,-3.2C31.6,-2.2 34.1,-0.9 36.2,0.9C38.2,2.8 38.8,5.5 39.3,9.2C53.8,7.9 55.9,3.4 55.9,-4.9L55.9,-25.5L93.8,-25.5C95.2,-25.5 96.2,-26 96.5,-27.1C92.2,-31 85,-36.6 85,-36.6Z"></path><path transform="translate(400 100)" d="M13.2,-84.1L12.3,-83.4C16.9,-78.8 22.5,-71.4 24.7,-65C36.3,-58.5 43.6,-80.7 13.2,-84.1ZM29.4,-52.7C31.7,-53 32.8,-53.8 33.3,-54.5L23.6,-62.6L18.4,-57.3L3.3,-57.3L4.2,-54.4L18.2,-54.4L18.2,-13.4C18.2,-11.2 17.5,-10.3 13.4,-7.8L21.6,4.6C22.7,3.9 23.9,2.5 24.7,0.5C34.5,-7.7 42.3,-15.4 46.3,-19.6L45.9,-20.7C40.2,-18.2 34.5,-15.7 29.4,-13.6L29.4,-52.7ZM75,-82.9L59.3,-84.4L59.3,-48.1L36.2,-48.1L37,-45.2L59.3,-45.2L59.3,8.6L61.6,8.6C66.2,8.6 71.3,5.7 71.3,4.3L71.3,-45.2L95.1,-45.2C96.6,-45.2 97.7,-45.7 98,-46.8C93.6,-50.9 86.3,-56.7 86.3,-56.7L79.8,-48.1L71.3,-48.1L71.3,-80.1C74.1,-80.5 74.8,-81.5 75,-82.9Z"></path><path transform="translate(500 100)" d="M31,-80.6L30.2,-79.8C34,-77 38.4,-71.7 39.7,-67.1C49.6,-61.7 56,-80.5 31,-80.6ZM61.1,-76.5L61.1,-14.1L63.1,-14.1C67.3,-14.1 71.9,-16.3 71.9,-17.2L71.9,-72.3C74.6,-72.7 75.4,-73.7 75.6,-75.1L61.1,-76.5ZM80.8,-83.4L80.8,-6C80.8,-4.8 80.3,-4.2 78.5,-4.2C76.2,-4.2 65.2,-4.9 65.2,-4.9L65.2,-3.5C70.4,-2.6 72.8,-1.3 74.5,0.5C76.1,2.4 76.6,5.1 77,8.9C90.6,7.7 92.5,3.1 92.5,-5.2L92.5,-79.2C95,-79.5 96,-80.5 96.2,-81.9L80.8,-83.4ZM2.4,-53.2L3.5,-50.6L16.4,-52.2C18.1,-40 21,-28.6 25.8,-18.5C19.4,-9.2 11.6,-1.7 2.2,4.6L3,6.1C13.4,1.5 22.2,-4.2 29.5,-11.5C32.5,-6.6 36,-2.1 40.1,2C44.4,6.4 52.8,11 57.5,6.7C59.2,5.2 58.8,2 55.2,-4.1L57.7,-21.2L56.6,-21.4C54.7,-17.1 52.1,-11.8 50.4,-9.2C49.4,-7.4 48.5,-7.4 47.1,-9C43.3,-12.3 40.1,-16.3 37.5,-20.7C42.9,-27.9 47.4,-36.4 51.2,-46.4C53.8,-46.3 54.8,-46.8 55.3,-48L41.2,-53.3C38.9,-44.8 36.1,-37.3 32.8,-30.6C30.1,-37.7 28.4,-45.5 27.4,-53.5L56.3,-57.1C57.7,-57.3 58.6,-58 58.8,-59.1C54.5,-62.2 47.6,-66.5 47.6,-66.5L42.4,-58.2L27.1,-56.3C26.2,-64.3 26,-72.5 26.1,-80.5C28.7,-80.9 29.6,-82.1 29.7,-83.4L14.5,-84.9C14.5,-74.6 14.9,-64.5 16.1,-54.9L2.4,-53.2Z"></path><path transform="translate(0 200)" d="M2.3,-53.3L7.6,-53.3L11.9,-70.3L27.5,-70.3C27.7,-60 27.7,-49.7 27.7,-39.4L27.7,-34.6C27.7,-24.4 27.7,-14.2 27.5,-4.2L16.9,-3.3L16.9,-0L52.7,-0L52.7,-3.3L42.1,-4.2C41.9,-14.3 41.9,-24.5 41.9,-34.7L41.9,-39.4C41.9,-49.8 41.9,-60.1 42.1,-70.3L57.7,-70.3L62,-53.3L67.3,-53.3L66.7,-74.1L2.8,-74.1L2.3,-53.3Z"></path><path transform="translate(69 200)" d="M45.2,-0L65.9,-0L65.9,-3L59.3,-3.6L59.1,-23.5L59.1,-35.9C59.1,-49.5 53,-55.2 43.6,-55.2C36.3,-55.2 30.6,-52.1 24.4,-44.9L24.4,-65.1L24.7,-81L23.4,-81.9L3.4,-78L3.4,-75.3L11.2,-74.8L11.2,-23.5L11,-3.7L3.8,-3L3.8,-0L31.2,-0L31.2,-3L24.9,-3.6C24.8,-9.3 24.7,-17.9 24.7,-23.5L24.7,-41.8C29.5,-46.4 34,-48.4 37.6,-48.4C42.5,-48.4 45.6,-45.4 45.6,-37L45.6,-23.5C45.6,-17.7 45.5,-9.3 45.4,-3.7L38.4,-3L38.4,-0L45.2,-0Z"></path><path transform="translate(138 200)" d="M31.6,1.6C41.5,1.6 49,-2.9 53.2,-11L51.4,-12.3C47.9,-7.6 43.2,-4.8 36.1,-4.8C26.1,-4.8 18.6,-11.3 18.2,-27L52.9,-27C53.3,-28.8 53.5,-30.6 53.5,-33.1C53.5,-45.5 45.6,-55.2 30.9,-55.2C16.7,-55.2 4,-44.9 4,-26.9C4,-8.4 15.4,1.6 31.6,1.6ZM18.2,-30.5C18.7,-45.2 24,-51.8 30.4,-51.8C36.8,-51.8 40.8,-46.8 40.8,-38C40.8,-32.6 39.6,-30.5 35.3,-30.5L18.2,-30.5Z"></path><path transform="translate(195 200)" d=""></path><path transform="translate(220 200)" d="M4.5,-70.8L14,-69.9C14.1,-59.7 14.1,-49.6 14.1,-39.4L14.1,-34.6C14.1,-24.3 14.1,-14.1 14,-4.2L4.5,-3.3L4.5,-0L39.5,-0L39.5,-3.3L28.5,-4.3L28.4,-29.9L32.9,-29.9C55.7,-29.9 64.4,-39.8 64.4,-52.2C64.4,-66 55.5,-74.1 34.1,-74.1L4.5,-74.1L4.5,-70.8ZM28.4,-33.5L28.4,-39.4C28.4,-49.8 28.4,-60.2 28.5,-70.4L33.9,-70.4C45.3,-70.4 51,-64.2 51,-52.3C51,-41.2 45.3,-33.5 32.6,-33.5L28.4,-33.5Z"></path><path transform="translate(287 200)" d="M10.6,-0L34,-0L34,-3L24.7,-3.9L24.5,-23.5L24.5,-32.3C26.8,-39.8 29.8,-44.3 34.2,-47.3L35,-46.4C37.5,-43.2 39.7,-41.2 43,-41.2C47.5,-41.2 49.5,-44.2 49.7,-48.5C48.7,-53.4 45,-55.2 40.6,-55.2C34.4,-55.2 27.7,-49.8 24.5,-40.3L23.7,-54.2L22.4,-55L2.8,-49.5L2.8,-47.1L10.6,-46.4C10.9,-41.5 11,-37.7 11,-31L11,-23.5C11,-18 10.9,-9.5 10.8,-3.7L3.5,-3L3.5,-0L10.6,-0Z"></path><path transform="translate(335 200)" d="M31.1,1.6C46.9,1.6 58.3,-9 58.3,-27C58.3,-44.9 45.9,-55.2 31.1,-55.2C16.4,-55.2 4,-44.8 4,-27C4,-9.2 15.2,1.6 31.1,1.6ZM31.1,-1.7C23,-1.7 18.3,-10 18.3,-26.8C18.3,-43.7 23,-51.8 31.1,-51.8C39.2,-51.8 43.9,-43.7 43.9,-26.8C43.9,-10 39.2,-1.7 31.1,-1.7Z"></path><path transform="translate(397 200)" d="M17.1,-65.5C21.3,-65.5 24.7,-68.5 24.7,-72.9C24.7,-77 21.3,-80.1 17.1,-80.1C12.9,-80.1 9.4,-77 9.4,-72.9C9.4,-68.5 12.9,-65.5 17.1,-65.5ZM1.3,27.1C6.5,27.1 12.1,25.5 17.1,20.5C22.9,14.7 24.3,7.8 24.3,-8L24.3,-38.8L24.6,-54L22.9,-55L2.7,-49.7L2.7,-47.3L10.6,-46.6C10.8,-41.8 10.9,-37 10.9,-30.4L10.9,-10.6C10.9,2.5 11.4,13.7 9.4,19.2C8.8,20.9 7.9,22.1 7,23L4.9,19.7C2.9,16.2 0.6,14.6 -2.4,14.6C-6.2,14.6 -8.7,16.7 -9.5,20.7C-8.6,24.6 -5.1,27.1 1.3,27.1Z"></path><path transform="translate(430 200)" d="M31.6,1.6C41.5,1.6 49,-2.9 53.2,-11L51.4,-12.3C47.9,-7.6 43.2,-4.8 36.1,-4.8C26.1,-4.8 18.6,-11.3 18.2,-27L52.9,-27C53.3,-28.8 53.5,-30.6 53.5,-33.1C53.5,-45.5 45.6,-55.2 30.9,-55.2C16.7,-55.2 4,-44.9 4,-26.9C4,-8.4 15.4,1.6 31.6,1.6ZM18.2,-30.5C18.7,-45.2 24,-51.8 30.4,-51.8C36.8,-51.8 40.8,-46.8 40.8,-38C40.8,-32.6 39.6,-30.5 35.3,-30.5L18.2,-30.5Z"></path><path transform="translate(487 200)" d="M30.8,1.6C41.5,1.6 48,-2.4 52.8,-10.8L51,-12.1C47.2,-7.4 42.4,-4.8 36.5,-4.8C25.4,-4.8 18.2,-13.2 18.2,-27.8C18.2,-42.9 25.1,-51.8 34.5,-51.8C35.9,-51.8 37.2,-51.7 38.5,-51.3L40,-43.7C40.4,-37.6 43.2,-35.6 46.9,-35.6C49.9,-35.6 51.9,-37 52.8,-40.2C51.2,-48.8 43.2,-55.2 32.9,-55.2C17.3,-55.2 4,-45 4,-26C4,-8.3 15.8,1.6 30.8,1.6Z"></path><path transform="translate(543 200)" d="M24.5,1.6C31.4,1.6 36,-0.9 38.9,-5.6L37.4,-7.3C34.7,-5.2 32.9,-4.3 30.2,-4.3C26.1,-4.3 23.6,-6.7 23.6,-12.4L23.6,-49.6L36.6,-49.6L36.6,-53.6L23.6,-53.6L23.8,-69.6L15.1,-69.6L10.8,-53.7L1.4,-52.8L1.4,-49.6L10.1,-49.6L10.1,-23.5C10.1,-19.5 10,-16.9 10,-13.2C10,-2.9 14.9,1.6 24.5,1.6Z"></path><path transform="translate(582 200)" d=""></path><path transform="translate(607 200)" d="M55.8,-54.8L61,-54.8L60.9,-74.1L4.5,-74.1L4.5,-70.8L14,-69.9C14.1,-59.7 14.1,-49.6 14.1,-39.4L14.1,-34.6C14.1,-24.3 14.1,-14.1 14,-4.2L4.5,-3.3L4.5,-0L39.5,-0L39.5,-3.3L28.5,-4.3C28.4,-14.4 28.4,-24.7 28.4,-35.9L43.6,-35.9L44.9,-25.2L49.4,-25.2L49.4,-50L44.9,-50L43.5,-39.5L28.4,-39.5C28.4,-50.2 28.4,-60.4 28.5,-70.3L51.8,-70.3L55.8,-54.8Z"></path><path transform="translate(666 200)" d="M31.1,1.6C46.9,1.6 58.3,-9 58.3,-27C58.3,-44.9 45.9,-55.2 31.1,-55.2C16.4,-55.2 4,-44.8 4,-27C4,-9.2 15.2,1.6 31.1,1.6ZM31.1,-1.7C23,-1.7 18.3,-10 18.3,-26.8C18.3,-43.7 23,-51.8 31.1,-51.8C39.2,-51.8 43.9,-43.7 43.9,-26.8C43.9,-10 39.2,-1.7 31.1,-1.7Z"></path><path transform="translate(728 200)" d="M10.6,-0L34,-0L34,-3L24.7,-3.9L24.5,-23.5L24.5,-32.3C26.8,-39.8 29.8,-44.3 34.2,-47.3L35,-46.4C37.5,-43.2 39.7,-41.2 43,-41.2C47.5,-41.2 49.5,-44.2 49.7,-48.5C48.7,-53.4 45,-55.2 40.6,-55.2C34.4,-55.2 27.7,-49.8 24.5,-40.3L23.7,-54.2L22.4,-55L2.8,-49.5L2.8,-47.1L10.6,-46.4C10.9,-41.5 11,-37.7 11,-31L11,-23.5C11,-18 10.9,-9.5 10.8,-3.7L3.5,-3L3.5,-0L10.6,-0Z"></path><path transform="translate(778 200)" d=""></path><path transform="translate(803 200)" d="M84.5,-70.8L94,-69.6L79.5,-15.3L63.9,-69.7L74.6,-70.8L74.6,-74.1L43.5,-74.1L43.5,-70.8L53.1,-69.7L37.5,-15.6L23.3,-69.9L32.9,-70.8L32.9,-74.1L1,-74.1L1,-70.8L8.4,-70.1L28.8,0.4L36.6,0.4L53.8,-57.3L71.2,0.4L78.9,0.4L99.2,-69.6L108.7,-70.8L108.7,-74.1L84.5,-74.1L84.5,-70.8Z"></path><path transform="translate(903 200)" d="M31.6,1.6C41.5,1.6 49,-2.9 53.2,-11L51.4,-12.3C47.9,-7.6 43.2,-4.8 36.1,-4.8C26.1,-4.8 18.6,-11.3 18.2,-27L52.9,-27C53.3,-28.8 53.5,-30.6 53.5,-33.1C53.5,-45.5 45.6,-55.2 30.9,-55.2C16.7,-55.2 4,-44.9 4,-26.9C4,-8.4 15.4,1.6 31.6,1.6ZM18.2,-30.5C18.7,-45.2 24,-51.8 30.4,-51.8C36.8,-51.8 40.8,-46.8 40.8,-38C40.8,-32.6 39.6,-30.5 35.3,-30.5L18.2,-30.5Z"></path><path transform="translate(959 200)" d="M40.3,1.6C53.8,1.6 63.2,-10.7 63.2,-27.1C63.2,-45.1 53.8,-55.2 41.4,-55.2C35.3,-55.2 29.4,-52.8 24.4,-47.6L24.4,-65.1L24.7,-81L23.4,-81.9L3.4,-78L3.4,-75.3L11.2,-74.7L11.2,-23.5C11.2,-17.9 11.1,-9.4 11,-3.6L3.8,-3L3.8,-0L22.6,1.3L24.4,-6.2C28.9,-0.9 34.4,1.6 40.3,1.6ZM24.7,-45.1C28.8,-48.5 31.8,-49.1 35,-49.1C43.1,-49.1 48.9,-42.7 48.9,-27.3C48.9,-9.5 42.2,-4.7 34.8,-4.7C31.2,-4.7 28,-5.9 24.7,-9L24.7,-45.1Z"></path></svg>